# xmcd
#
# Track frame offsets:
#	150
#	12178
#	35365
#	68025
#	95113
#	109781
#	133394
#	161126
#	195468
#	226977
#	253457
#	270215
#	289178
#	305957
#	326077
#
# Disc length: 4635 seconds
#
# Revision: 0
# Processed by: cddbd v1.5.2PL0 Copyright (c) Steve Scherf et al.
# Submitted via: SynApp - FreeCDDB Version: 2.5
#
DISCID=e112190f
DTITLE=Eric Clapton - Crossroads 2007 Eric Clapton
DYEAR=2007
DGENRE=Blues
TTITLE0=Sonny Landreth - Uberesso
TTITLE1=Sonny Landreth and Eric Clapton - Hell At Home
TTITLE2=John Mclaughlin - Maharina
TTITLE3=Doyle Bramhall Ii - Rosie
TTITLE4=Doyle Bramhall Ii - Outside Woman Blues
TTITLE5=Susan Tedeschi and Derek Trucks  - Little By Little
TTITLE6=Derek Trucks  - Anyday
TTITLE7=Johnny Winter and Derek Trucks  - Highway 61 Revisited
TTITLE8=Robert Randolph and Family Band - Nobodysoul
TTITLE9=Robert Cray  - Poor Johnny
TTITLE10=Jimmie Vaughan and Robert Cray  - Dirty Work At The Crossroads
TTITLE11=Hubert Sumlin and Robert Cray  and Jimmie Vaughan - Sitting On Top Of The World
TTITLE12=B.B. King and Robert Cray , Jimmie Vaughan and Hubert Sumlin - Paying Cost To Be Boss
TTITLE13=B.B. King and Robert Cray , Jimmie Vaughan and Hubert Sumlin - Rock Me Baby
TTITLE14=Vince Gill - Sweet Thing
EXTD=CD 1-3 
EXTT0=
EXTT1=
EXTT2=
EXTT3=
EXTT4=
EXTT5=
EXTT6=
EXTT7=
EXTT8=
EXTT9=
EXTT10=
EXTT11=
EXTT12=
EXTT13=
EXTT14=
PLAYORDER=
